HIERARCHY
ROOT Hips
{
	OFFSET 0.00000 0.00000 0.00000
	CHANNELS 6 Xposition Yposition Zposition Zrotation Yrotation Xrotation 
	JOINT LHipJoint
	{
		OFFSET 0 0 0
		CHANNELS 3 Zrotation Yrotation Xrotation
		JOINT LeftUpLeg
		{
			OFFSET 1.17584 -1.63585 1.00361
			CHANNELS 3 Zrotation Yrotation Xrotation
			JOINT LeftLeg
			{
				OFFSET 2.23889 -6.15131 0.00000
				CHANNELS 3 Zrotation Yrotation Xrotation
				JOINT LeftFoot
				{
					OFFSET 2.65161 -7.28525 0.00000
					CHANNELS 3 Zrotation Yrotation Xrotation
					JOINT LeftToeBase
					{
						OFFSET 0.24898 -0.68407 1.57235
						CHANNELS 3 Zrotation Yrotation Xrotation
						End Site
						{
							OFFSET 0.00000 -0.00000 0.85838
						}
					}
				}
			}
		}
	}
	JOINT RHipJoint
	{
		OFFSET 0 0 0
		CHANNELS 3 Zrotation Yrotation Xrotation
		JOINT RightUpLeg
		{
			OFFSET -1.15592 -1.63585 1.00361
			CHANNELS 3 Zrotation Yrotation Xrotation
			JOINT RightLeg
			{
				OFFSET -2.34071 -6.43104 0.00000
				CHANNELS 3 Zrotation Yrotation Xrotation
				JOINT RightFoot
				{
					OFFSET -2.59113 -7.11908 0.00000
					CHANNELS 3 Zrotation Yrotation Xrotation
					JOINT RightToeBase
					{
						OFFSET -0.17867 -0.49089 1.70981
						CHANNELS 3 Zrotation Yrotation Xrotation
						End Site
						{
							OFFSET -0.00000 -0.00000 0.89861
						}
					}
				}
			}
		}
	}
	JOINT LowerBack
	{
		OFFSET 0 0 0
		CHANNELS 3 Zrotation Yrotation Xrotation
		JOINT Spine
		{
			OFFSET -0.02255 1.90764 -0.16605
			CHANNELS 3 Zrotation Yrotation Xrotation
			JOINT Spine1
			{
				OFFSET -0.00365 1.92150 -0.04898
				CHANNELS 3 Zrotation Yrotation Xrotation
				JOINT Neck
				{
					OFFSET 0 0 0
					CHANNELS 3 Zrotation Yrotation Xrotation
					JOINT Neck1
					{
						OFFSET 0.00372 1.59170 0.08694
						CHANNELS 3 Zrotation Yrotation Xrotation
						JOINT Head
						{
							OFFSET 0.12558 1.58643 -0.08078
							CHANNELS 3 Zrotation Yrotation Xrotation
							End Site
							{
								OFFSET 0.04211 1.60835 -0.03803
							}
						}
					}
				}
				JOINT LeftShoulder
				{
					OFFSET 0 0 0
					CHANNELS 3 Zrotation Yrotation Xrotation
					JOINT LeftArm
					{
						OFFSET 3.69324 0.96316 0.19077
						CHANNELS 3 Zrotation Yrotation Xrotation
						JOINT LeftForeArm
						{
							OFFSET 4.87796 -0.00000 -0.00000
							CHANNELS 3 Zrotation Yrotation Xrotation
							JOINT LeftHand
							{
								OFFSET 3.23169 -0.00000 0.00000
								CHANNELS 3 Zrotation Yrotation Xrotation
								JOINT LeftFingerBase
								{
									OFFSET 0 0 0
									CHANNELS 3 Zrotation Yrotation Xrotation
									JOINT LeftHandIndex1
									{
										OFFSET 0.73132 -0.00000 0.00000
										CHANNELS 3 Zrotation Yrotation Xrotation
										End Site
										{
											OFFSET 0.58961 -0.00000 0.00000
										}
									}
								}
								JOINT LThumb
								{
									OFFSET 0 0 0
									CHANNELS 3 Zrotation Yrotation Xrotation
									End Site
									{
										OFFSET 0.59861 -0.00000 0.59861
									}
								}
							}
						}
					}
				}
				JOINT RightShoulder
				{
					OFFSET 0 0 0
					CHANNELS 3 Zrotation Yrotation Xrotation
					JOINT RightArm
					{
						OFFSET -3.66103 0.75145 0.08281
						CHANNELS 3 Zrotation Yrotation Xrotation
						JOINT RightForeArm
						{
							OFFSET -4.91430 -0.00000 0.00000
							CHANNELS 3 Zrotation Yrotation Xrotation
							JOINT RightHand
							{
								OFFSET -3.29093 -0.00000 0.00000
								CHANNELS 3 Zrotation Yrotation Xrotation
								JOINT RightFingerBase
								{
									OFFSET 0 0 0
									CHANNELS 3 Zrotation Yrotation Xrotation
									JOINT RightHandIndex1
									{
										OFFSET -0.54512 -0.00000 0.00000
										CHANNELS 3 Zrotation Yrotation Xrotation
										End Site
										{
											OFFSET -0.43949 -0.00000 0.00000
										}
									}
								}
								JOINT RThumb
								{
									OFFSET 0 0 0
									CHANNELS 3 Zrotation Yrotation Xrotation
									End Site
									{
										OFFSET -0.44620 -0.00000 0.44620
									}
								}
							}
						}
					}
				}
			}
		}
	}
}
MOTION
Frames: 16
Frame Time: .0083333
-2.731 16.4163 0.1246 0 0 0 0 0 0 -21 0 0 0 0 0 0 0 0 0 0 0 0 0 0 21 0 0 0 0 0 0 0 0 0 0 0 0 0 0 0 0 0 0 0 0 0 0 -16 0 0 21 0 0 11 0 0 0 -8 0 0 0 0 0 0 0 0 0 0 0 0 0 0 0 0 0 0 0 0 8 0 0 0 0 0 0 0 0 0 0 0 0 0 0 0 0 0
-2.7310 16.4163 0.1246 53.7222 -86.9120 -52.5241 0.0000 0.0000 0.0000 -13.0571 -4.2215 -12.3861 2.9676 10.6423 31.0829 1.6806 11.1413 -30.6981 3.3725 -11.2749 -33.2126 0.0000 0.0000 0.0000 8.7726 10.1273 -14.4910 -5.1658 -13.5682 41.5343 -2.9387 -3.6598 -33.8424 -0.0764 -1.7830 4.9063 1.1604 2.4606 -8.8307 -5.3616 3.5376 4.3371 -5.8352 1.9629 10.0672 6.7030 8.2877 -5.1549 -8.5790 -56.9770 15.4572 -175.1900 -38.4502 29.2697 0.0000 -0.0000 0.0000 -75.5948 -11.6072 42.8887 24.1532 -35.3258 -7.7949 -0.0000 -0.0000 2.6682 32.9672 -29.3744 -17.6482 -7.1250 0.0000 -0.0000 1.1923 -3.8718 -1.2704 0.0000 -0.0000 0.0000 93.5578 6.9740 27.9299 -25.5580 36.7689 -8.6217 0.0000 0.0000 6.1721 -28.8086 -32.8391 16.6061 7.1250 -0.0000 -0.0000 4.5597 -66.3015 -2.3446
-2.7294 16.3975 0.1270 53.4563 -86.8176 -52.2941 0.0000 0.0000 0.0000 -13.1326 -4.4852 -12.5420 3.0565 10.7859 31.5612 1.7246 11.0571 -30.9127 3.4416 -11.3777 -33.5646 0.0000 0.0000 0.0000 8.6744 9.6624 -14.5536 -5.1073 -13.5036 41.2843 -2.8390 -4.1219 -33.4886 -0.0248 -1.0174 2.7968 1.4328 2.6177 -8.6118 -5.6378 3.7262 4.2441 -6.2669 2.0790 9.9015 6.8743 8.4858 -4.7588 -7.7459 -56.3191 14.8060 -175.8570 -37.1898 29.1320 0.0000 -0.0000 0.0000 -75.1464 -11.5713 43.4314 24.1944 -35.3692 -7.8188 -0.0000 -0.0000 2.3228 32.6847 -29.3766 -17.4709 -7.1250 0.0000 -0.0000 1.0312 -3.7915 -1.0973 0.0000 -0.0000 0.0000 94.0807 6.7140 27.3963 -25.6081 36.8191 -8.6517 0.0000 0.0000 6.4324 -28.8942 -32.5060 16.5194 7.1250 -0.0000 -0.0000 4.2266 -65.9816 -2.1420
-2.7284 16.3803 0.1263 52.9224 -86.9097 -51.7405 0.0000 0.0000 0.0000 -12.9916 -4.6305 -12.8077 3.1523 10.9376 32.0699 1.7793 10.9915 -31.2054 3.5136 -11.4834 -33.9282 0.0000 0.0000 0.0000 8.7986 9.4778 -14.6011 -5.0449 -13.4341 41.0161 -2.7150 -4.7753 -33.0865 -0.0026 -0.3295 0.9054 1.5024 2.6199 -8.5805 -5.6105 3.7182 4.2231 -6.2785 2.0782 9.8613 6.7161 8.8629 -4.4259 -6.8815 -55.1808 13.9910 -176.5190 -35.7781 28.9498 0.0000 -0.0000 0.0000 -75.1728 -11.5576 43.3981 24.1711 -35.3447 -7.8053 -0.0000 -0.0000 2.3824 32.6887 -29.3340 -17.4518 -7.1250 0.0000 -0.0000 1.0422 -3.7465 -1.1082 0.0000 -0.0000 0.0000 94.0857 6.7015 27.4679 -25.5761 36.7871 -8.6326 0.0000 0.0000 6.3372 -29.1252 -32.2264 16.5477 7.1250 -0.0000 -0.0000 3.7458 -65.7585 -1.8787
-2.7295 16.3613 0.1261 53.4132 -86.9382 -52.2147 0.0000 0.0000 0.0000 -12.9436 -4.6830 -13.0829 3.2430 11.0783 32.5445 1.8249 10.9040 -31.4235 3.4590 -11.4035 -33.6529 0.0000 0.0000 0.0000 8.8264 9.2279 -14.6805 -4.9856 -13.3676 40.7606 -2.5756 -5.4738 -32.6247 -0.0083 0.5868 -1.6125 1.4559 2.6080 -8.6211 -5.5690 3.7066 4.2451 -6.2073 2.0689 9.9012 6.5035 9.2783 -4.1214 -5.9495 -53.7149 13.0658 -177.1650 -34.1623 28.6478 0.0000 -0.0000 0.0000 -75.2791 -11.6050 43.2934 24.1494 -35.3218 -7.7928 -0.0000 -0.0000 2.4517 32.7613 -29.5009 -17.5826 -7.1250 0.0000 -0.0000 1.0494 -3.9484 -1.1193 0.0000 -0.0000 0.0000 94.0033 6.7613 27.5352 -25.5466 36.7575 -8.6149 0.0000 0.0000 6.2737 -29.0421 -32.3200 16.5348 7.1250 -0.0000 -0.0000 3.9136 -65.8317 -1.9696
-2.7303 16.3443 0.1262 53.7009 -86.9417 -52.4924 0.0000 0.0000 0.0000 -12.9216 -4.7819 -13.3051 3.3267 11.2060 32.9777 1.8706 10.8169 -31.6407 3.4565 -11.3997 -33.6400 0.0000 0.0000 0.0000 8.8319 8.9812 -14.7369 -4.9311 -13.3057 40.5240 -2.4512 -6.1078 -32.2234 -0.0493 1.4322 -3.9390 1.4432 2.6081 -8.6244 -5.5683 3.7082 4.2454 -6.1988 2.0688 9.9027 6.3464 9.6330 -3.8174 -5.2062 -52.4458 12.3466 -177.6910 -32.6824 28.3499 -0.0000 -0.0000 0.0000 -75.3031 -11.6274 43.2688 24.1305 -35.3020 -7.7819 -0.0000 -0.0000 2.4466 32.7586 -29.5812 -17.6217 -7.1250 0.0000 -0.0000 1.0312 -4.0346 -1.1014 -0.0000 -0.0000 0.0000 93.9982 6.7647 27.5526 -25.5206 36.7314 -8.5993 0.0000 0.0000 6.2633 -29.0458 -32.2634 16.5127 7.1250 -0.0000 -0.0000 3.8730 -65.7738 -1.9440
-2.7317 16.3302 0.1262 54.2034 -86.9322 -52.9801 0.0000 0.0000 0.0000 -12.9227 -4.8551 -13.4943 3.3969 11.3115 33.3377 1.9103 10.7356 -31.8236 3.4477 -11.3867 -33.5953 0.0000 0.0000 0.0000 8.8173 8.7884 -14.7814 -4.8855 -13.2536 40.3255 -2.3439 -6.6564 -31.8828 -0.1130 2.1674 -5.9685 1.3799 2.5882 -8.6564 -5.5475 3.6885 4.2539 -6.1423 2.0545 9.9220 6.1776 9.9465 -3.5694 -4.6307 -51.3122 11.7741 -178.0980 -31.4090 28.0716 -0.0000 0.0000 0.0000 -75.3654 -11.6501 43.1867 24.1070 -35.2772 -7.7683 -0.0000 -0.0000 2.4613 32.7732 -29.6547 -17.6683 -7.1250 0.0000 -0.0000 1.0244 -4.1184 -1.0955 -0.0000 0.0000 0.0000 93.9391 6.7887 27.6284 -25.4860 36.6966 -8.5786 0.0000 0.0000 6.2422 -29.0302 -32.2426 16.4937 7.1250 -0.0000 -0.0000 3.8802 -65.7476 -1.9452
-2.7336 16.3198 0.1260 54.7565 -86.9155 -53.5166 0.0000 0.0000 0.0000 -12.9385 -4.9098 -13.6362 3.4497 11.3897 33.6058 1.9411 10.6669 -31.9611 3.4411 -11.3769 -33.5619 0.0000 0.0000 0.0000 8.7921 8.6631 -14.8068 -4.8511 -13.2142 40.1756 -2.2669 -7.0535 -31.6435 -0.1756 2.6991 -7.4420 1.3207 2.5745 -8.6886 -5.5410 3.6772 4.2555 -6.1024 2.0448 9.9365 6.0588 10.1708 -3.3896 -4.2426 -50.4912 11.3886 -178.3730 -30.4804 27.8593 -0.0000 -0.0000 0.0000 -75.4001 -11.6657 43.1269 24.0868 -35.2559 -7.7566 -0.0000 -0.0000 2.4687 32.7813 -29.7032 -17.6981 -7.1250 0.0000 -0.0000 1.0190 -4.1732 -1.0906 -0.0000 -0.0000 0.0000 93.9015 6.7972 27.6849 -25.4552 36.6657 -8.5603 0.0000 0.0000 6.2339 -29.0086 -32.2428 16.4800 7.1250 -0.0000 -0.0000 3.9085 -65.7418 -1.9589
-2.7355 16.3135 0.1254 55.1846 -86.9082 -53.9273 0.0000 0.0000 0.0000 -12.9468 -4.9478 -13.7314 3.4849 11.4415 33.7836 1.9633 10.6117 -32.0564 3.4404 -11.3759 -33.5585 0.0000 0.0000 0.0000 8.7793 8.6165 -14.8112 -4.8284 -13.1879 40.0758 -2.2237 -7.2876 -31.5168 -0.2167 2.9966 -8.2694 1.3004 2.5790 -8.7063 -5.5577 3.6868 4.2461 -6.1070 2.0484 9.9378 6.0120 10.2921 -3.2824 -4.0224 -50.0434 11.1795 -178.5330 -29.9412 27.7369 0.0000 0.0000 0.0000 -75.3832 -11.6752 43.1236 24.0747 -35.2432 -7.7496 -0.0000 -0.0000 2.4654 32.7781 -29.7163 -17.7027 -7.1250 0.0000 -0.0000 1.0145 -4.1865 -1.0860 0.0000 0.0000 0.0000 93.9151 6.7844 27.6942 -25.4308 36.6411 -8.5457 0.0000 0.0000 6.2343 -29.0015 -32.2519 16.4794 7.1250 -0.0000 -0.0000 3.9235 -65.7490 -1.9671
-2.7373 16.3105 0.1246 55.4395 -86.9203 -54.1673 0.0000 0.0000 0.0000 -12.9347 -4.9670 -13.7890 3.5061 11.4724 33.8902 1.9790 10.5666 -32.1189 3.4416 -11.3777 -33.5644 0.0000 0.0000 0.0000 8.7917 8.6346 -14.7974 -4.8148 -13.1722 40.0165 -2.2062 -7.3990 -31.4752 -0.2334 3.1094 -8.5836 1.3263 2.6036 -8.7041 -5.5921 3.7183 4.2286 -6.1541 2.0662 9.9260 6.0287 10.3246 -3.2380 -3.9295 -49.9177 11.1066 -178.6060 -29.7353 27.6962 -0.0000 0.0000 0.0000 -75.3188 -11.6784 43.1837 24.0774 -35.2460 -7.7512 -0.0000 -0.0000 2.4502 32.7743 -29.6931 -17.6885 -7.1250 0.0000 -0.0000 1.0171 -4.1602 -1.0884 -0.0000 0.0000 0.0000 93.9761 6.7572 27.6566 -25.4121 36.6222 -8.5345 0.0000 0.0000 6.2336 -29.0171 -32.2590 16.4924 7.1250 -0.0000 -0.0000 3.9076 -65.7610 -1.9602
-2.7389 16.3100 0.1237 55.4752 -86.9527 -54.1936 0.0000 0.0000 0.0000 -12.8993 -4.9650 -13.8214 3.5178 11.4895 33.9491 1.9878 10.5385 -32.1520 3.4450 -11.3828 -33.5820 0.0000 0.0000 0.0000 8.8314 8.6949 -14.7662 -4.8076 -13.1637 39.9845 -2.2085 -7.4109 -31.4958 -0.2289 3.0793 -8.4996 1.3952 2.6430 -8.6784 -5.6356 3.7646 4.2045 -6.2339 2.0942 9.8990 6.0929 10.2893 -3.2445 -3.9284 -50.0270 11.1297 -178.6100 -29.7799 27.7141 0.0000 0.0000 0.0000 -75.2241 -11.6744 43.2970 24.0939 -35.2634 -7.7607 -0.0000 -0.0000 2.4197 32.7751 -29.6492 -17.6667 -7.1250 0.0000 -0.0000 1.0266 -4.1130 -1.0978 0.0000 0.0000 0.0000 94.0701 6.7150 27.5818 -25.4024 36.6125 -8.5288 0.0000 0.0000 6.2296 -29.0419 -32.2644 16.5106 7.1250 -0.0000 -0.0000 3.8786 -65.7738 -1.9468
-2.7402 16.3096 0.1232 55.3020 -86.9969 -54.0170 0.0000 0.0000 0.0000 -12.8482 -4.9499 -13.8431 3.5252 11.5003 33.9862 1.9912 10.5305 -32.1666 3.4518 -11.3929 -33.6166 0.0000 0.0000 0.0000 8.8866 8.7334 -14.7433 -4.8030 -13.1584 39.9643 -2.2089 -7.4246 -31.5060 -0.2283 3.0758 -8.4897 1.4919 2.6859 -8.6329 -5.6780 3.8120 4.1786 -6.3287 2.1244 9.8607 6.1619 10.2511 -3.2525 -3.9216 -50.1295 11.1476 -178.6140 -29.8182 27.7270 -0.0000 0.0000 0.0000 -75.1259 -11.6673 43.4314 24.1165 -35.2872 -7.7738 -0.0000 -0.0000 2.3819 32.7828 -29.6037 -17.6485 -7.1250 0.0000 -0.0000 1.0404 -4.0660 -1.1117 -0.0000 0.0000 0.0000 94.1718 6.6683 27.4933 -25.3992 36.6092 -8.5268 0.0000 0.0000 6.2238 -29.0553 -32.2555 16.5154 7.1250 -0.0000 -0.0000 3.8554 -65.7684 -1.9346
-2.7413 16.3092 0.1232 55.0345 -87.0440 -53.7514 0.0000 0.0000 0.0000 -12.7935 -4.9283 -13.8579 3.5309 11.5086 34.0149 1.9927 10.5321 -32.1767 3.4560 -11.3990 -33.6378 0.0000 0.0000 0.0000 8.9443 8.7500 -14.7246 -4.7993 -13.1541 39.9483 -2.2088 -7.4270 -31.5068 -0.2287 3.0781 -8.4964 1.5907 2.7228 -8.5802 -5.7091 3.8503 4.1575 -6.4142 2.1501 9.8216 6.2157 10.2211 -3.2626 -3.9088 -50.2003 11.1538 -178.6200 -29.8328 27.7331 0.0000 -0.0000 0.0000 -75.0479 -11.6686 43.5540 24.1314 -35.3029 -7.7823 -0.0000 -0.0000 2.3512 32.8061 -29.5699 -17.6461 -7.1250 0.0000 -0.0000 1.0605 -4.0364 -1.1327 0.0000 -0.0000 0.0000 94.2556 6.6297 27.4163 -25.3991 36.6091 -8.5268 0.0000 0.0000 6.2124 -29.0366 -32.2271 16.4911 7.1250 -0.0000 -0.0000 3.8620 -65.7335 -1.9348
-2.7423 16.3091 0.1234 54.8166 -87.0836 -53.5371 0.0000 0.0000 0.0000 -12.7490 -4.9044 -13.8713 3.5367 11.5170 34.0439 1.9954 10.5297 -32.1913 3.4538 -11.3957 -33.6264 0.0000 0.0000 0.0000 8.9901 8.7457 -14.7110 -4.7955 -13.1498 39.9317 -2.2079 -7.4212 -31.4978 -0.2295 3.0834 -8.5109 1.6660 2.7461 -8.5320 -5.7260 3.8726 4.1407 -6.4732 2.1659 9.7848 6.2453 10.2067 -3.2652 -3.8977 -50.2385 11.1552 -178.6300 -29.8320 27.7374 -0.0000 0.0000 0.0000 -74.9984 -11.6745 43.6410 24.1319 -35.3034 -7.7826 -0.0000 -0.0000 2.3384 32.8458 -29.5660 -17.6692 -7.1250 0.0000 -0.0000 1.0839 -4.0437 -1.1579 -0.0000 0.0000 0.0000 94.3076 6.6000 27.3729 -25.3994 36.6095 -8.5270 0.0000 0.0000 6.1915 -28.9786 -32.1910 16.4384 7.1250 -0.0000 -0.0000 3.9150 -65.6792 -1.9565
-2.7435 16.3093 0.1238 54.7664 -87.1064 -53.4874 0.0000 0.0000 0.0000 -12.7268 -4.8831 -13.8852 3.5422 11.5250 34.0716 1.9999 10.5214 -32.2125 3.4454 -11.3834 -33.5841 0.0000 0.0000 0.0000 9.0100 8.7186 -14.7082 -4.7918 -13.1454 39.9153 -2.2068 -7.4013 -31.4798 -0.2305 3.0899 -8.5293 1.7036 2.7514 -8.4929 -5.7294 3.8745 4.1245 -6.4992 2.1686 9.7471 6.2468 10.2123 -3.2523 -3.8921 -50.2347 11.1544 -178.6400 -29.8102 27.7372 -0.0000 -0.0000 0.0000 -74.9797 -11.6729 43.6786 24.1209 -35.2919 -7.7763 -0.0000 -0.0000 2.3491 32.8934 -29.5942 -17.7139 -7.1250 0.0000 -0.0000 1.1051 -4.0883 -1.1813 -0.0000 -0.0000 0.0000 94.3220 6.5769 27.3762 -25.3959 36.6059 -8.5249 0.0000 0.0000 6.1623 -28.8912 -32.1538 16.3665 7.1250 -0.0000 -0.0000 4.0057 -65.6153 -1.9960
-2.7448 16.3096 0.1241 54.8484 -87.1256 -53.5662 0.0000 0.0000 0.0000 -12.7120 -4.8648 -13.9010 3.5474 11.5324 34.0972 2.0051 10.5142 -32.2386 3.4347 -11.3675 -33.5295 0.0000 0.0000 0.0000 9.0210 8.6917 -14.7111 -4.7881 -13.1412 39.8992 -2.2065 -7.3728 -31.4615 -0.2301 3.0875 -8.5224 1.7144 2.7451 -8.4577 -5.7199 3.8628 4.1043 -6.4976 2.1623 9.7022 6.2279 10.2340 -3.2211 -3.8887 -50.1864 11.1497 -178.6430 -29.7556 27.7261 -0.0000 -0.0000 0.0000 -74.9846 -11.6591 43.6805 24.1022 -35.2721 -7.7655 -0.0000 -0.0000 2.3757 32.9311 -29.6418 -17.7621 -7.1250 0.0000 -0.0000 1.1167 -4.1508 -1.1948 -0.0000 -0.0000 0.0000 94.3092 6.5513 27.4117 -25.3924 36.6024 -8.5228 0.0000 0.0000 6.1270 -28.7955 -32.1252 16.2931 7.1250 -0.0000 -0.0000 4.1120 -65.5580 -2.0436
